<svg xmlns="http://www.w3.org/2000/svg" viewBox="0 0 413.63 88.26"><defs><style>.cls-1{fill:#eaeaea;}.cls-2{fill:none;stroke:#eaeaea;stroke-linecap:round;stroke-miterlimit:10;stroke-width:6px;}.cls-3{fill:#9b9b9b;}.cls-4{fill:#ec1e24;}.cls-5{fill:#fff;}</style></defs><g id="continiue_video_buttom" data-name="continiue video buttom"><rect class="cls-4" width="413.63" height="88.26" rx="13.39"/><circle class="cls-5" cx="58.12" cy="44.13" r="28.04"/><path class="cls-4" d="M7037.1,7213.23v-27.39a3.12,3.12,0,0,1,4.37-2.4c3.77,1,25.53,12.86,26.82,13.5s1.85,3.14.47,4.8c-2.83,1.8-25.11,12.94-27.12,13.8A3.38,3.38,0,0,1,7037.1,7213.23Z" transform="translate(-6992.69 -7155.37)"/><path class="cls-5" d="M7114.73,7193.51a7.51,7.51,0,0,0-.47-3.22,1.58,1.58,0,0,0-1.51-.85,1.9,1.9,0,0,0-1.3.42,2.84,2.84,0,0,0-.74,1.52,16.21,16.21,0,0,0-.33,2.93c-.05,1.23-.08,2.77-.08,4.64s0,3.41.08,4.63a16.45,16.45,0,0,0,.33,2.94,2.84,2.84,0,0,0,.74,1.51,1.9,1.9,0,0,0,1.3.43,1.7,1.7,0,0,0,1.08-.33,2.06,2.06,0,0,0,.66-1.11,9.52,9.52,0,0,0,.33-2.08c.07-.86.1-2,.1-3.28h7v2.06a12.54,12.54,0,0,1-.78,4.78,7.5,7.5,0,0,1-2.06,2.93,6.76,6.76,0,0,1-2.93,1.43,15.25,15.25,0,0,1-3.39.37,14,14,0,0,1-5-.74,6,6,0,0,1-3-2.46,11.58,11.58,0,0,1-1.49-4.46,44.76,44.76,0,0,1-.41-6.62,40,40,0,0,1,.48-6.72,11.55,11.55,0,0,1,1.65-4.46,6.63,6.63,0,0,1,3.07-2.47,12.85,12.85,0,0,1,4.7-.76,12,12,0,0,1,4.15.63,6.59,6.59,0,0,1,4.33,4.52,12.66,12.66,0,0,1,.48,3.63v1.74h-7Z" transform="translate(-6992.69 -7155.37)"/><path class="cls-5" d="M7123.7,7199a36.82,36.82,0,0,1,.5-6.62,11.79,11.79,0,0,1,1.67-4.47,6.8,6.8,0,0,1,3.07-2.52,13.94,13.94,0,0,1,9.31,0,6.8,6.8,0,0,1,3.07,2.52,11.79,11.79,0,0,1,1.67,4.47,44.07,44.07,0,0,1,0,13.24,11.74,11.74,0,0,1-1.67,4.46,6.43,6.43,0,0,1-3.07,2.46,15,15,0,0,1-9.31,0,6.43,6.43,0,0,1-3.07-2.46,11.74,11.74,0,0,1-1.67-4.46A37,37,0,0,1,7123.7,7199Zm7.45,0c0,1.86,0,3.41.08,4.63a16.45,16.45,0,0,0,.33,2.94,2.84,2.84,0,0,0,.73,1.51,1.94,1.94,0,0,0,1.3.43,1.9,1.9,0,0,0,1.3-.43,2.84,2.84,0,0,0,.74-1.51,16.45,16.45,0,0,0,.33-2.94c.05-1.22.08-2.77.08-4.63s0-3.41-.08-4.64a16.21,16.21,0,0,0-.33-2.93,2.84,2.84,0,0,0-.74-1.52,1.9,1.9,0,0,0-1.3-.42,1.93,1.93,0,0,0-1.3.42,2.84,2.84,0,0,0-.73,1.52,16.21,16.21,0,0,0-.33,2.93C7131.17,7195.54,7131.15,7197.08,7131.15,7199Z" transform="translate(-6992.69 -7155.37)"/><path class="cls-5" d="M7146.1,7185.09h8.07l4.66,17.08h.08v-17.08h6.75v27.71h-7.92l-4.81-17.11h-.08v17.11h-6.75Z" transform="translate(-6992.69 -7155.37)"/><path class="cls-5" d="M7172.73,7191.22h-5.36v-6.13h18v6.13H7180v21.58h-7.22Z" transform="translate(-6992.69 -7155.37)"/><path class="cls-5" d="M7186.74,7185.09H7194v27.71h-7.22Z" transform="translate(-6992.69 -7155.37)"/><path class="cls-5" d="M7197.11,7185.09h8.07l4.66,17.08h.08v-17.08h6.75v27.71h-7.91l-4.82-17.11h-.08v17.11h-6.75Z" transform="translate(-6992.69 -7155.37)"/><path class="cls-5" d="M7227,7185.09v20a4.37,4.37,0,0,0,.59,2.7,2.2,2.2,0,0,0,3.18,0,4.39,4.39,0,0,0,.58-2.7v-20h7.22v18.17a16.3,16.3,0,0,1-.62,4.85,7.46,7.46,0,0,1-1.8,3.1,6.11,6.11,0,0,1-2.94,1.59,19.05,19.05,0,0,1-8.05,0,6.1,6.1,0,0,1-2.95-1.59,7.47,7.47,0,0,1-1.81-3.1,16.3,16.3,0,0,1-.62-4.85v-18.17Z" transform="translate(-6992.69 -7155.37)"/><path class="cls-5" d="M7241.68,7185.09h16.42v5.9h-9.2v4.73h8.62v5.67h-8.62v5.51h9.55v5.9h-16.77Z" transform="translate(-6992.69 -7155.37)"/><path class="cls-5" d="M7267.61,7185.09h7.57l2.92,20.88h.07l2.91-20.88h7.69l-6,27.71h-9.31Z" transform="translate(-6992.69 -7155.37)"/><path class="cls-5" d="M7289.67,7185.09h7.22v27.71h-7.22Z" transform="translate(-6992.69 -7155.37)"/><path class="cls-5" d="M7300,7185.09h10.48a8.89,8.89,0,0,1,4.89,1.14,7.11,7.11,0,0,1,2.62,3.07,12.93,12.93,0,0,1,1.07,4.43c.13,1.66.2,3.4.2,5.22s-.07,3.55-.2,5.22a12.87,12.87,0,0,1-1.07,4.42,7.05,7.05,0,0,1-2.62,3.07,8.89,8.89,0,0,1-4.89,1.14H7300Zm7.22,22.51h1.44a3.91,3.91,0,0,0,1.67-.29,2,2,0,0,0,1-1.22,10.15,10.15,0,0,0,.43-2.64q.09-1.71.09-4.5c0-1.87,0-3.37-.09-4.51a10.15,10.15,0,0,0-.43-2.64,2,2,0,0,0-1-1.22,4.07,4.07,0,0,0-1.67-.29h-1.44Z" transform="translate(-6992.69 -7155.37)"/><path class="cls-5" d="M7322.32,7185.09h16.42v5.9h-9.2v4.73h8.61v5.67h-8.61v5.51h9.55v5.9h-16.77Z" transform="translate(-6992.69 -7155.37)"/><path class="cls-5" d="M7340.91,7199a36.73,36.73,0,0,1,.51-6.62,11.63,11.63,0,0,1,1.67-4.47,6.78,6.78,0,0,1,3.06-2.52,14,14,0,0,1,9.32,0,6.8,6.8,0,0,1,3.07,2.52,12,12,0,0,1,1.67,4.47,44.07,44.07,0,0,1,0,13.24,11.91,11.91,0,0,1-1.67,4.46,6.43,6.43,0,0,1-3.07,2.46,15,15,0,0,1-9.32,0,6.41,6.41,0,0,1-3.06-2.46,11.58,11.58,0,0,1-1.67-4.46A36.88,36.88,0,0,1,7340.91,7199Zm7.46,0c0,1.86,0,3.41.07,4.63a17.44,17.44,0,0,0,.33,2.94,2.91,2.91,0,0,0,.74,1.51,2.18,2.18,0,0,0,2.6,0,2.91,2.91,0,0,0,.74-1.51,16.45,16.45,0,0,0,.33-2.94c0-1.22.08-2.77.08-4.63s0-3.41-.08-4.64a16.21,16.21,0,0,0-.33-2.93,2.91,2.91,0,0,0-.74-1.52,2.22,2.22,0,0,0-2.6,0,2.91,2.91,0,0,0-.74,1.52,17.17,17.17,0,0,0-.33,2.93C7348.39,7195.54,7348.37,7197.08,7348.37,7199Z" transform="translate(-6992.69 -7155.37)"/></g></svg>