<svg xmlns="http://www.w3.org/2000/svg" viewBox="182.29 19.77 49.05 48.72"><defs><style>.cls-1{fill:#eaeaea;}.cls-2{fill:none;stroke:#eaeaea;stroke-linecap:round;stroke-miterlimit:10;stroke-width:6px;}.cls-3{fill:#9b9b9b;}.cls-4{fill:#ec1e24;}.cls-5{fill:#fff;}</style></defs><g id="small_screen_icon" data-name="small screen icon"><polygon class="cls-1" points="231.34 47.94 218.01 47.94 210.79 47.94 210.78 47.94 210.78 68.49 218.01 68.49 218.01 55.16 231.34 55.16 231.34 47.94"/><polygon class="cls-1" points="202.85 68.49 202.85 55.16 202.85 47.94 202.85 47.93 182.29 47.93 182.29 55.16 195.62 55.16 195.62 68.49 202.85 68.49"/><polygon class="cls-1" points="182.29 40.32 195.62 40.32 202.84 40.32 202.85 40.32 202.85 19.77 195.62 19.77 195.62 33.09 182.29 33.09 182.29 40.32"/><polygon class="cls-1" points="210.78 19.77 210.78 33.1 210.78 40.32 210.78 40.33 231.34 40.33 231.34 33.1 218.01 33.1 218.01 19.77 210.78 19.77"/></g></svg>