<svg xmlns="http://www.w3.org/2000/svg" viewBox="177.33 19.7 58.96 48.86"><defs><style>.cls-1{fill:#eaeaea;}.cls-2{fill:none;stroke:#eaeaea;stroke-linecap:round;stroke-miterlimit:10;stroke-width:6px;}.cls-3{fill:#9b9b9b;}.cls-4{fill:#ec1e24;}.cls-5{fill:#fff;}</style></defs><g id="mute"><polygon class="cls-1" points="206.54 19.7 190.38 34.65 177.33 34.65 177.33 54.68 191.17 54.68 206.54 68.56 206.54 19.7"/><path class="cls-1" d="M7221.15,7199.5l6.92-6.92a3.11,3.11,0,1,0-4.41-4.4l-6.92,6.91-6.91-6.91a3.11,3.11,0,0,0-4.41,4.4l6.91,6.92-6.91,6.92a3.11,3.11,0,0,0,4.41,4.4l6.91-6.91,6.92,6.91a3.11,3.11,0,0,0,4.41-4.4Z" transform="translate(-6992.69 -7155.37)"/></g></svg>