<svg xmlns="http://www.w3.org/2000/svg" viewBox="176.83 14.26 59.97 59.74"><defs><style>.cls-1{fill:#eaeaea;}.cls-2{fill:none;stroke:#eaeaea;stroke-linecap:round;stroke-miterlimit:10;stroke-width:6px;}.cls-3{fill:#9b9b9b;}.cls-4{fill:#ec1e24;}.cls-5{fill:#fff;}</style></defs><g id="full_screen_icon" data-name="full screen icon"><polygon class="cls-1" points="198.39 15.26 185.06 15.26 177.84 15.26 177.83 15.26 177.83 35.81 185.06 35.81 185.06 22.49 198.39 22.49 198.39 15.26"/><polygon class="cls-1" points="235.8 35.82 235.8 22.49 235.8 15.27 235.8 15.26 215.25 15.26 215.25 22.49 228.57 22.49 228.57 35.82 235.8 35.82"/><polygon class="cls-1" points="215.24 73 228.57 73 235.79 73 235.8 73 235.8 52.44 228.57 52.44 228.57 65.77 215.24 65.77 215.24 73"/><polygon class="cls-1" points="177.83 52.44 177.83 65.77 177.83 72.99 177.83 73 198.38 73 198.38 65.77 185.06 65.77 185.06 52.44 177.83 52.44"/></g></svg>